<svg xmlns="http://www.w3.org/2000/svg" viewBox="0 0 36.69 33.31"><defs><style>.cls-1{fill:none;stroke:#fff;stroke-miterlimit:10;stroke-width:2px;}.cls-2{fill:#fff;}</style></defs><g id="Layer_2" data-name="Layer 2"><g id="Layer_1-2" data-name="Layer 1"><path class="cls-1" d="M22.94,3.92H2.72A1.73,1.73,0,0,0,1,5.65v19a1.72,1.72,0,0,0,1.72,1.72H4.86a1.73,1.73,0,0,1,1.72,1.65L6.75,32a.33.33,0,0,0,.56.22L12.73,27a1.77,1.77,0,0,1,1.19-.49L31,26.38a1.71,1.71,0,0,0,1.71-1.72V12.38"/><line class="cls-1" x1="6.27" y1="9.51" x2="20.67" y2="9.51"/><line class="cls-1" x1="6.27" y1="14.44" x2="16.01" y2="14.44"/><line class="cls-1" x1="6.27" y1="19.36" x2="16.01" y2="19.36"/><path class="cls-2" d="M36,.72a16.8,16.8,0,0,1-.8,2.17c-.52.47-1,1-1.51,1.44l-3,2.88-3,2.88-1.5,1.44a20.24,20.24,0,0,1-2.2.72,22,22,0,0,1,.81-2.16l1.5-1.45,3-2.88,3-2.88c.5-.48,1-.95,1.5-1.45A17.7,17.7,0,0,1,36,.72Z"/><line class="cls-1" x1="36" y1="0.72" x2="26.2" y2="10.12"/></g></g></svg>