<svg xmlns="http://www.w3.org/2000/svg" viewBox="0 0 35 28.1"><defs><style>.cls-1{fill:#fff;}</style></defs><g id="Layer_2" data-name="Layer 2"><g id="Layer_1-2" data-name="Layer 1"><path class="cls-1" d="M3,7.36c-.58-2.58-.86-5,.63-7.26,2.87-.42,5.32,1.14,7.26,2.39l4.9-.77a11.28,11.28,0,0,1,3.48,0l5,.77A14.66,14.66,0,0,1,27.44.72a8.22,8.22,0,0,1,4-.69c1.68,2.19,1.38,4.56.81,7.17a14.61,14.61,0,0,1,2.61,10.89c-.73,5.6-3.21,8.44-8.76,9.33A52.61,52.61,0,0,1,8.3,27.26a9.79,9.79,0,0,1-7.71-7.2C-.59,15.44-.09,11.24,3,7.36Zm8,18.69a33.68,33.68,0,0,0,12.38.12c.93-.16,1.82-.34,2.52-.52,4.67-1.22,5.19-6.33,3.87-9.18-1.13-2.43-3.17-4-6.37-2.6A13.67,13.67,0,0,1,12.14,14c-3.64-1.7-5.85.1-6.86,2.8a6.49,6.49,0,0,0,4.46,8.93C10.08,25.87,10.48,26,10.92,26.05Z"/><path class="cls-1" d="M24.3,23.27c-2.08-.56-2.66-2.17-2.66-4s.54-3.45,2.67-4c2.08.52,2.56,2.12,2.57,4S26.36,22.7,24.3,23.27Z"/><path class="cls-1" d="M11,15.32c2.09.71,2.5,2.42,2.4,4.35-.08,1.74-.68,3.19-2.71,3.61-2-.77-2.56-2.5-2.43-4.38C8.39,17.25,8.89,15.64,11,15.32Z"/></g></g></svg>