<svg xmlns="http://www.w3.org/2000/svg" viewBox="0 0 35 29.11"><defs><style>.cls-1{fill:none;stroke:#fff;stroke-miterlimit:10;stroke-width:2px;}.cls-2{fill:#fff;}</style></defs><g id="Layer_2" data-name="Layer 2"><g id="Layer_1-2" data-name="Layer 1"><path class="cls-1" d="M29.86,22.15v4.37a1.39,1.39,0,0,1-1.57,1.57h-5.9a1.55,1.55,0,0,1-1.75-1.73c0-1.54,0-3.08,0-4.62,0-1.28-.5-1.87-1.82-1.87-4.67,0-4.36-.17-4.35,4,0,4.62.41,4.2-4.33,4.21-1,0-1.89,0-2.83,0-1.36.06-2.1-.46-2.08-1.91q0-4.23,0-8.47a2.31,2.31,0,0,1,1-2C9.54,13,12.92,10.25,16.25,7.44a1.78,1.78,0,0,1,2.68,0q4.91,4.14,9.89,8.16a2.69,2.69,0,0,1,1.07,2.43c-.05,1.37,0,2.74,0,4.1Z"/><path class="cls-2" d="M.33,14.92a.84.84,0,0,1,0-1.3c2.55-2.21,10.76-9.31,14.11-12,2.59-2.12,3.39-2.1,6,0,1.44,1.16,6.46,5.26,6.46,5.26v-6h3.36s0,2.91-.11,8.27L34.7,12.9a.83.83,0,0,1,0,1.28l-.55.47a.83.83,0,0,1-1.06,0C30.92,12.91,22.7,6.27,19.72,3.81c-2.28-1.88-2.29-1.89-4.64,0C11.73,6.62,3.84,13.4,1.76,15.18a.82.82,0,0,1-1,0Z"/></g></g></svg>