<svg xmlns="http://www.w3.org/2000/svg" viewBox="0 0 35 34.79"><defs><style>.cls-1{fill:#fff;}</style></defs><g id="Layer_2" data-name="Layer 2"><g id="Layer_1-2" data-name="Layer 1"><path class="cls-1" d="M12.52,34.68V11.88h6.59l0,2.74s1-.88,1.35-1.18a10.56,10.56,0,0,1,9.28-1.95,6.68,6.68,0,0,1,4.87,4.93,29,29,0,0,1,.36,6.26c.11,3.93,0,7.86,0,12H27.66c0-2.84,0-5.61,0-8.39,0-1.76,0-3.53-.17-5.28-.24-2.37-1.25-3.42-3.15-3.56A3.73,3.73,0,0,0,20,20.56a28.12,28.12,0,0,0-.44,5c-.06,3,0,6,0,9.17Z"/><path class="cls-1" d="M7.57,34.79H.83v-23H7.57Z"/><path class="cls-1" d="M4.37,8.26A4.22,4.22,0,0,1,0,4.36,4.45,4.45,0,0,1,4,0,4.18,4.18,0,0,1,8.27,4,4.07,4.07,0,0,1,4.37,8.26Z"/></g></g></svg>