<?xml version="1.0" encoding="utf-8"?>
<!-- Generator: Adobe Illustrator 24.3.0, SVG Export Plug-In . SVG Version: 6.00 Build 0)  -->
<svg version="1.1" id="Layer_1" xmlns="http://www.w3.org/2000/svg" xmlns:xlink="http://www.w3.org/1999/xlink" x="0px" y="0px"
	 viewBox="0 0 23 31" style="enable-background:new 0 0 23 31;" xml:space="preserve">
<style type="text/css">
	.st0{fill:none;stroke:#FFFFFF;stroke-width:2;stroke-miterlimit:10;}
</style>
<g id="Layer_2_1_">
	<g id="Layer_1-2">
		<path class="st0" d="M13.8,1.2v7.6c0,0.4,0.3,0.7,0.7,0.7c0,0,0,0,0,0h7.2"/>
		<path class="st0" d="M16,1.2l5.8,5.7C21.9,7,22,7.2,22,7.4v22c0,0.4-0.3,0.7-0.7,0.7l0,0H1.7c-0.4,0-0.7-0.3-0.7-0.7
			c0,0,0,0,0-0.1V1.7C1,1.3,1.3,1,1.7,1h13.9C15.7,1,15.9,1.1,16,1.2z"/>
		<line class="st0" x1="3.9" y1="5.3" x2="10.7" y2="5.3"/>
		<line class="st0" x1="3.9" y1="9.4" x2="10.7" y2="9.4"/>
		<line class="st0" x1="3.9" y1="16.5" x2="18.6" y2="16.5"/>
		<line class="st0" x1="3.9" y1="24.2" x2="18.6" y2="24.2"/>
		<line class="st0" x1="6.2" y1="20.3" x2="16.3" y2="20.3"/>
	</g>
</g>
</svg>
