<svg id="Layer_1" data-name="Layer 1" xmlns="http://www.w3.org/2000/svg" viewBox="0 0 85.13 79.84"><defs><style>.cls-1{fill:#c2c1c0;}.cls-2{fill:#848484;}</style></defs><path class="cls-1" d="M353.54,280.44c1.64-1.19,4.47-.32,3.82,1.64-1.85,5.67-6.54,12.64-14.06,12.64-8.39,0-20.16-7.08-26.27-29.43-1,9-2,18.1-2.83,27.14-4.25,1.64-10.57,2-10-2,2.83-21.8,5.45-42,7.41-69.54-9.7.88-19.94,2.29-21.8,2.29-2.18,0-2-5.23.22-7.19,44.69-2.83,59-.76,60.93,10.14s-12.64,27.68-25.07,36.73C332.07,280,340.57,288,346.46,288,349.73,288,351.26,286.11,353.54,280.44ZM322.7,220.06c-2.07,14.17-3.71,28.12-5.34,42.18a5.5,5.5,0,0,1,1.42-1.09c11.33-7.41,20.27-23.65,18.42-33.24-.88-4.58-6-7.85-12.32-7.85Z" transform="translate(-288.25 -214.88)"/><path class="cls-2" d="M366.3,281c4.14,0,7.09,2.62,7.09,7.41a6.26,6.26,0,0,1-6.22,6.1c-3.92,0-7.08-2.28-7.08-6.1S362.49,281,366.3,281Z" transform="translate(-288.25 -214.88)"/></svg>